<?xml version="1.0" standalone="no"?>
<!DOCTYPE svg PUBLIC "-//W3C//DTD SVG 20010904//EN"
 "http://www.w3.org/TR/2001/REC-SVG-20010904/DTD/svg10.dtd">
<svg version="1.0" xmlns="http://www.w3.org/2000/svg"
 width="500.000000pt" height="500.000000pt" viewBox="0 0 500.000000 500.000000"
 preserveAspectRatio="xMidYMid meet">

<g transform="translate(0.000000,500.000000) scale(0.100000,-0.100000)"
fill="#000000" stroke="none">
<path d="M2225 4200 c-383 -68 -675 -218 -940 -484 -250 -250 -409 -544 -475
-877 -11 -56 -11 -57 -53 -63 -23 -4 -74 -22 -113 -41 -88 -43 -174 -131 -218
-225 -26 -55 -31 -80 -34 -161 -6 -145 25 -240 112 -336 87 -96 206 -153 329
-155 l69 -1 37 -81 c303 -655 1002 -1056 1717 -986 422 41 787 218 1085 526
136 142 239 292 319 465 l35 76 61 1 c247 2 453 210 454 457 0 220 -152 412
-364 459 l-49 11 -32 130 c-105 423 -352 775 -714 1017 -220 147 -443 233
-709 273 -138 20 -387 18 -517 -5z m448 -148 c165 -59 273 -205 285 -385 11
-185 -81 -338 -256 -424 -42 -21 -74 -28 -140 -31 -156 -8 -260 33 -367 145
-66 70 -93 78 -132 41 -35 -33 -29 -68 21 -131 77 -93 177 -155 303 -188 98
-25 169 -24 274 2 99 25 133 41 215 102 228 168 296 507 149 751 -19 32 -33
61 -31 63 8 9 226 -89 304 -136 381 -229 647 -599 741 -1032 15 -70 41 -295
41 -355 0 -2 10 -12 22 -24 30 -27 64 -25 95 6 25 25 25 29 19 101 l-6 75 33
-6 c49 -10 137 -75 169 -126 88 -139 71 -299 -44 -412 -71 -69 -138 -92 -251
-84 -50 3 -96 2 -106 -4 -10 -5 -26 -31 -36 -57 -38 -103 -139 -286 -209 -380
-40 -54 -121 -143 -178 -199 -422 -406 -1023 -541 -1593 -358 -116 37 -305
134 -415 212 -227 160 -443 433 -537 677 -15 39 -36 80 -47 93 -18 21 -25 22
-110 16 -119 -8 -187 15 -262 90 -154 154 -114 415 79 510 76 38 77 38 77 -53
0 -74 2 -81 26 -100 33 -26 54 -26 86 -1 23 18 25 27 31 132 9 154 31 271 77
411 174 519 589 905 1119 1038 144 37 246 48 386 45 79 -3 126 -9 168 -24z"/>
<path d="M1885 2486 c-16 -7 -45 -28 -62 -46 -107 -109 -40 -300 111 -317 78
-9 158 33 193 101 21 40 21 132 1 171 -45 86 -158 128 -243 91z"/>
<path d="M3014 2494 c-32 -7 -99 -69 -118 -108 -66 -139 76 -302 225 -257 77
23 138 103 139 181 0 48 -37 117 -81 152 -27 22 -49 30 -90 33 -30 2 -64 1
-75 -1z"/>
<path d="M1932 1888 c-17 -17 -16 -30 24 -188 39 -158 54 -192 112 -266 70
-89 171 -139 330 -164 180 -28 338 9 473 109 55 41 72 60 106 127 52 100 87
200 102 287 21 119 84 107 -568 107 -428 0 -570 -3 -579 -12z"/>
</g>
</svg>
