<svg version="1.1" id="Layer_1" xmlns="http://www.w3.org/2000/svg" xmlns:xlink="http://www.w3.org/1999/xlink" x="0px" y="0px"
	 width="100%" viewBox="0 0 288 288" enable-background="new 0 0 288 288" xml:space="preserve">
<path fill="#000000" opacity="1.000000" stroke="none" 
	d="
M57.718632,196.154022 
	C56.317730,191.956345 54.068142,190.296204 49.627724,189.921967 
	C35.751354,188.752502 25.059233,178.051468 23.743843,164.970200 
	C22.328318,150.893112 30.379395,138.848907 44.248783,134.645355 
	C47.326649,133.712509 48.883076,132.107513 49.636822,128.949600 
	C58.647976,91.196373 81.335876,65.027771 118.057205,52.770836 
	C177.631332,32.886040 237.602264,68.868881 251.331421,126.187202 
	C252.469940,130.940430 254.196777,133.770462 259.389252,135.336731 
	C271.738403,139.061752 279.456696,151.971161 278.163208,165.037201 
	C276.908203,177.714401 266.363373,188.387131 252.599548,189.849228 
	C248.009552,190.336807 246.136490,192.373291 244.252563,196.036148 
	C226.500732,230.550476 198.143509,251.005051 159.635880,253.864044 
	C113.836899,257.264374 79.596039,237.255905 57.718632,196.154022 
M163.195633,105.853836 
	C174.888596,99.577248 179.586060,90.365799 177.697510,77.416550 
	C176.205841,67.188652 167.745499,59.240204 155.853683,57.110958 
	C145.763916,55.304371 135.925201,57.395199 126.311386,59.974712 
	C86.045006,70.778694 58.781372,105.371826 56.352917,149.038254 
	C56.187435,152.013794 56.222054,155.025223 52.244213,155.170441 
	C47.957439,155.326950 47.715473,152.218277 47.611958,149.009979 
	C47.561394,147.442841 48.268799,145.364792 46.302799,144.561005 
	C44.603897,143.866440 43.137211,145.142731 41.750713,146.063995 
	C34.235935,151.057297 31.350903,160.927597 34.890411,169.512909 
	C38.117073,177.339386 46.467049,181.887817 55.281147,180.196014 
	C59.138283,179.455688 61.374928,180.653976 62.697510,184.158463 
	C63.226322,185.559647 63.822517,186.936798 64.425926,188.308228 
	C88.935448,244.013977 155.230743,260.649200 202.657410,229.512619 
	C219.142395,218.689911 231.065521,204.042343 238.315918,185.686279 
	C240.089417,181.196213 242.487411,178.751740 247.746490,180.438538 
	C250.654678,181.371277 253.703918,180.465683 256.537994,179.368576 
	C264.117218,176.434494 269.353149,168.195221 268.606201,160.451767 
	C267.798676,152.080688 262.195190,145.531174 254.810608,144.377823 
	C253.879913,146.087021 254.340012,147.950897 254.339630,149.736374 
	C254.339020,152.542770 253.606247,154.788712 250.450439,155.149261 
	C246.985077,155.545181 245.775696,153.280319 245.323975,150.342316 
	C245.147003,149.191116 244.942429,148.037155 244.874954,146.877197 
	C243.004761,114.720970 228.388885,89.816231 201.984314,71.681862 
	C196.172928,67.690666 189.840164,64.712158 182.094360,62.125401 
	C183.280640,64.904343 183.986404,66.393883 184.560730,67.932480 
	C186.606125,73.412025 188.548828,79.018906 187.889435,84.923286 
	C185.611816,105.317444 169.362366,118.860641 148.877823,117.418846 
	C138.844757,116.712669 130.914612,111.783295 124.720413,103.995018 
	C122.912239,101.721519 122.017029,98.995308 124.516281,96.836281 
	C127.164261,94.548790 129.791748,95.758430 131.961441,98.080925 
	C132.416260,98.567757 132.837463,99.085983 133.291840,99.573250 
	C141.138000,107.987114 151.582657,110.356491 163.195633,105.853836 
z"/>
<path fill="#000000" opacity="1.000000" stroke="none" 
	d="
M119.358826,186.730392 
	C140.613647,186.566574 161.407150,186.480545 182.199509,186.275925 
	C185.530563,186.243134 186.776657,187.698105 186.461365,190.800644 
	C184.254517,212.516357 171.785110,228.234863 146.946701,225.427246 
	C128.017670,223.287582 121.410912,216.493301 117.638786,197.742126 
	C117.213425,195.627686 116.604340,193.549820 116.068359,191.458084 
	C115.420609,188.930145 116.046310,187.181091 119.358826,186.730392 
z"/>
<path fill="#000000" opacity="1.000000" stroke="none" 
	d="
M128.350098,155.935165 
	C131.448166,162.558044 130.517395,167.969864 125.921257,171.548889 
	C121.411545,175.060608 115.649658,175.073792 111.170029,171.582642 
	C107.014229,168.343842 105.657578,162.313232 107.919197,157.131851 
	C111.355263,149.259811 121.641052,148.477264 128.350098,155.935165 
z"/>
<path fill="#000000" opacity="1.000000" stroke="none" 
	d="
M186.668701,150.768188 
	C193.425919,152.889420 197.167099,156.959717 197.024124,162.249130 
	C196.888367,167.270721 194.486374,171.022797 189.742996,173.148270 
	C185.320206,175.130096 181.317032,174.321060 177.673950,171.427994 
	C173.513443,168.124039 172.884613,163.478653 174.012314,158.795807 
	C175.060760,154.442169 178.515198,151.986954 182.794510,150.892395 
	C183.889816,150.612213 185.097931,150.773026 186.668701,150.768188 
z"/>
</svg>