<?xml version="1.0" standalone="no"?>
<!DOCTYPE svg PUBLIC "-//W3C//DTD SVG 20010904//EN"
 "http://www.w3.org/TR/2001/REC-SVG-20010904/DTD/svg10.dtd">
<svg version="1.0" xmlns="http://www.w3.org/2000/svg"
 width="500.000000pt" height="500.000000pt" viewBox="0 0 500.000000 500.000000"
 preserveAspectRatio="xMidYMid meet">
<metadata>
Created by potrace 1.14, written by Peter Selinger 2001-2017
</metadata>
<g transform="translate(0.000000,500.000000) scale(0.100000,-0.100000)"
fill="#000000" stroke="none">
<path d="M2228 4200 c-375 -63 -681 -221 -948 -489 -243 -245 -406 -546 -470
-873 -11 -56 -11 -56 -53 -63 -104 -17 -234 -106 -296 -203 -91 -142 -96 -339
-14 -481 81 -140 234 -231 388 -231 l63 0 53 -107 c261 -533 762 -889 1346
-958 153 -19 239 -18 398 0 399 47 762 227 1040 516 142 148 243 294 320 461
l40 86 85 4 c333 16 533 382 372 682 -60 112 -198 214 -313 231 l-45 7 -17 83
c-70 341 -278 696 -543 927 -258 224 -542 355 -894 413 -130 21 -374 18 -512
-5z m402 -136 c126 -28 235 -119 293 -243 43 -90 50 -217 18 -313 -29 -88 -81
-161 -152 -213 -91 -67 -135 -80 -269 -80 -111 0 -118 1 -183 33 -45 22 -91
57 -136 103 -75 75 -99 83 -138 47 -34 -32 -29 -68 17 -125 109 -138 300 -222
471 -210 98 8 220 47 289 94 163 110 261 288 261 475 1 122 -25 219 -82 311
-16 27 -28 51 -26 53 7 8 156 -54 246 -102 129 -68 266 -171 374 -280 274
-277 424 -608 457 -1009 10 -120 12 -132 36 -152 33 -30 59 -29 91 3 24 25 25
29 19 101 l-7 76 32 -7 c44 -8 125 -61 153 -100 55 -73 70 -117 71 -206 0
-102 -23 -159 -95 -231 -69 -69 -140 -93 -256 -85 -64 4 -96 2 -107 -7 -8 -7
-31 -52 -51 -102 -72 -180 -198 -365 -348 -512 -100 -98 -138 -129 -243 -198
-299 -196 -642 -284 -993 -255 -479 40 -886 273 -1170 670 -52 72 -182 322
-182 349 0 10 -10 27 -23 39 -22 20 -30 22 -113 16 -76 -5 -97 -3 -145 15 -72
27 -136 84 -174 152 -27 49 -30 62 -30 149 0 84 3 101 27 146 31 59 93 118
152 145 65 29 66 28 66 -56 0 -67 3 -79 25 -100 31 -32 59 -32 90 0 21 20 25
34 25 87 0 221 80 512 199 727 135 243 369 477 614 613 274 152 673 233 897
182z"/>
<path d="M1894 2489 c-40 -11 -100 -73 -115 -116 -16 -50 -6 -126 21 -166 82
-119 261 -110 326 16 20 38 21 135 1 173 -43 82 -139 121 -233 93z"/>
<path d="M2995 2481 c-154 -71 -150 -280 7 -346 47 -19 89 -19 136 0 160 67
160 283 0 350 -49 20 -94 19 -143 -4z"/>
<path d="M1932 1888 c-17 -17 -16 -27 22 -181 41 -167 72 -232 141 -302 96
-95 225 -138 420 -139 91 -1 123 3 185 24 82 27 203 102 236 147 78 106 166
370 147 441 l-5 22 -567 0 c-428 0 -570 -3 -579 -12z"/>
</g>
</svg>
